# xmcd
#
# Track frame offsets: 
#        150
#        17192
#        32165
#        47722
#        62287
#        76690
#        92255
#        112940
#        131937
#        146590
#        166405
#
# Disc length: 2399 seconds
#
# Revision: 0
# Processed by: cddbd v1.5.2PL0 Copyright (c) Steve Scherf et al.
# Submitted via: ExactAudioCopy v0.99pb1
#
DISCID=83095d0b
DTITLE=Cashman - Texassippi Stomp
DYEAR=2007
DGENRE=Blues
TTITLE0=Black
TTITLE1=Whatcha Doing
TTITLE2=Reefer Headed Woman
TTITLE3=Pistol Blues
TTITLE4=Footlights
TTITLE5=Baby
TTITLE6=Como, MS
TTITLE7=Down Slow
TTITLE8=Out Of Your Life
TTITLE9=Trouble's On The Way
TTITLE10=Long Road
EXTD=
EXTT0=
EXTT1=
EXTT2=
EXTT3=
EXTT4=
EXTT5=
EXTT6=
EXTT7=
EXTT8=
EXTT9=
EXTT10=
PLAYORDER=
